# xmcd
#
# Track frame offsets: 
#        150
#        11485
#        46341
#        58547
#        74895
#        108563
#        131876
#        150973
#        164245
#        172480
#        188486
#        209441
#        222871
#        234213
#        247774
#        259836
#
# Disc length: 3654 seconds
#
# Revision: 3
# Processed by: cddbd v1.5.2PL0 Copyright (c) Steve Scherf et al.
# Submitted via: ExactAudioCopy v1.3
#
DISCID=ea0e4410
DTITLE=Jonas Kaufmann -  Antonio Pappano, Orchestra e Coro dell'Accadem
DTITLE=ia Nazionale di Santa Cecilia - 2015 - Kaufmann - Nessun Dorma 
DTITLE=The Puccini Album (Sony)
DYEAR=2015
DGENRE=Oper
TTITLE0=Manon Lescaut, Atto I: "Donna non vidi mai"
TTITLE1=Jonas Kaufmann, Kristine Opolais -  Antonio Pappano, Orchestra 
TTITLE1=e Coro dell'Accademia Nazionale di Santa Cecilia - Manon Lesca
TTITLE1=ut, Atto II: "Oh, sarò la più bella!... Tu, tu, amore? Tu?"
TTITLE2=Jonas Kaufmann, Kristine Opolais -  Antonio Pappano, Orchestra 
TTITLE2=e Coro dell'Accademia Nazionale di Santa Cecilia - Manon Lesca
TTITLE2=ut, Atto II: "Ah! Manon mi tradisce"
TTITLE3=Jonas Kaufmann, Antonio Pirozzi -  Antonio Pappano, Orchestra e
TTITLE3=Coro dell'Accademia Nazionale di Santa Cecilia - Manon Lescau
TTITLE3=t, Atto III:"Presto! In fila!... Non v'avvicinate! No, pazzo s
TTITLE3=on!"
TTITLE4=Le Villi, Atto II: "Ei giunge!... Torna ai felici dì"
TTITLE5=Edgar, Atto II: "Orgia, chimera dall'occhio vitreo"
TTITLE6=Jonas Kaufmann, Kristine Opolais -  Antonio Pappano, Orchestra 
TTITLE6=e Coro dell'Accademia Nazionale di Santa Cecilia - La Bohème A
TTITLE6=tto I: "O soave fanciulla"
TTITLE7=Jonas Kaufmann, Antonio Pirozzi -  Antonio Pappano, Orchestra e
TTITLE7=Coro dell'Accademia Nazionale di Santa Cecilia - Tosca, Atto 
TTITLE7=I: "Recondita armonia"
TTITLE8=Jonas Kaufmann, Massimo Simeoli -  Antonio Pappano, Orchestra e
TTITLE8=Coro dell'Accademia Nazionale di Santa Cecilia - Madama Butte
TTITLE8=rfly, Atto III: "Addio, fiorito asil"
TTITLE9=La Fanciulla del West, Atto II: "Una parola sola!... Or son se
TTITLE9=i mesi"
TTITLE10=Jonas Kaufmann, Massimo Simeoli -  Antonio Pappano, Orchestra 
TTITLE10=e Coro dell'Accademia Nazionale di Santa Cecilia - La Fanciul
TTITLE10=la del West, Atto III: "Ch'ella mi creda libero"
TTITLE11=La Rondine, Atto I: "Parigi! È la città dei desideri"
TTITLE12=Il Tabarro: "Hai ben ragione"
TTITLE13=Gianni Schicchi: "Avete torto!... Firenze e come un albero fi
TTITLE13=orito"
TTITLE14=Jonas Kaufmann, Kristine Opolais, Antonio Pirozzi -  Antonio P
TTITLE14=appano, Orchestra e Coro dell'Accademia Nazionale di Santa Ce
TTITLE14=cilia - Turandot, Atto I: "Non piangere, Liù!"
TTITLE15=Turandot, Atto III: "Nessun dorma"
EXTD=
EXTT0=
EXTT1=
EXTT2=
EXTT3=
EXTT4=
EXTT5=
EXTT6=
EXTT7=
EXTT8=
EXTT9=
EXTT10=
EXTT11=
EXTT12=
EXTT13=
EXTT14=
EXTT15=
PLAYORDER=
